<?xml version="1.0" encoding="UTF-8"?>
<svg xmlns="http://www.w3.org/2000/svg" width="194.606" height="49.293" viewBox="0 0 194.606 49.293">
  <path id="isc-logo-alt" d="M74.235,17.053h3.007V29.474H74.235ZM94.181,27.178v2.157a6.472,6.472,0,0,1-1.964.279c-2.085,0-3.025-.836-3.025-2.7V22.6H88.01V20.566h1.182V18.357H92.06v2.209h1.93V22.6H92.043v3.724c0,.7.278.975,1.044.975a4.4,4.4,0,0,0,1.1-.122m3.344-3.062h3.494a1.593,1.593,0,0,0-1.669-1.722,1.8,1.8,0,0,0-1.824,1.722m6.154,2.453c-.4,1.932-2,3.115-4.293,3.115A4.642,4.642,0,0,1,96,28.4a4.443,4.443,0,0,1-1.321-3.376,4.533,4.533,0,0,1,1.3-3.392,4.613,4.613,0,0,1,3.372-1.27,4.15,4.15,0,0,1,3.181,1.252,4.606,4.606,0,0,1,1.182,3.272v.782h-6.24c.156,1.3.817,1.967,1.912,1.967A1.542,1.542,0,0,0,101,26.57h2.677ZM101.4,39.631h3.5a1.593,1.593,0,0,0-1.671-1.722,1.805,1.805,0,0,0-1.826,1.722m6.16,2.453c-.4,1.933-2,3.115-4.3,3.115a4.649,4.649,0,0,1-3.393-1.287,4.445,4.445,0,0,1-1.323-3.376,4.535,4.535,0,0,1,1.305-3.391,4.62,4.62,0,0,1,3.376-1.27,4.162,4.162,0,0,1,3.186,1.252A4.608,4.608,0,0,1,107.6,40.4v.782h-6.246c.157,1.306.819,1.967,1.915,1.967a1.542,1.542,0,0,0,1.617-1.061Zm23.079-2.453h3.5a1.594,1.594,0,0,0-1.67-1.722,1.807,1.807,0,0,0-1.827,1.722m6.159,2.453c-.4,1.933-2,3.115-4.3,3.115a4.652,4.652,0,0,1-3.393-1.287,4.445,4.445,0,0,1-1.323-3.376,4.532,4.532,0,0,1,1.306-3.391,4.618,4.618,0,0,1,3.376-1.27,4.157,4.157,0,0,1,3.185,1.252,4.6,4.6,0,0,1,1.183,3.272v.782h-6.247c.157,1.306.819,1.967,1.914,1.967a1.543,1.543,0,0,0,1.618-1.061Zm-25.748-21.57v2.679a4.981,4.981,0,0,0-.938-.069,2.2,2.2,0,0,0-2.329,2.453v3.9h-2.9V20.566h2.869v1.9a2.7,2.7,0,0,1,2.659-2.035,1.533,1.533,0,0,1,.644.087M125.3,27.822a1.69,1.69,0,0,0,1.825-1.722v-.436l-1.6.191c-.973.122-1.338.4-1.338,1.009s.416.957,1.112.957m2.052,1.653a10.614,10.614,0,0,1-.087-1.3,2.881,2.881,0,0,1-2.852,1.514c-1.893,0-3.094-1.026-3.094-2.628s1.077-2.506,3.3-2.732l2.5-.242v-.367a1.329,1.329,0,0,0-2.642-.157H121.7c.191-2.018,1.757-3.2,4.19-3.2,2.694,0,4.067,1.252,4.067,3.689v2.886a15.291,15.291,0,0,0,.157,2.541Zm9.373-2.3v2.157a6.472,6.472,0,0,1-1.964.279c-2.086,0-3.025-.836-3.025-2.7V22.6h-1.182V20.566h1.182V18.357h2.868v2.209h1.93V22.6H134.59v3.724c0,.7.278.975,1.044.975a4.4,4.4,0,0,0,1.1-.122m4.107,2.3h-2.9V20.566h2.9v8.909Zm.052-10.144H137.88V16.808h3.007Zm4.073,5.69c0,1.653.643,2.575,1.826,2.575,1.164,0,1.808-.9,1.808-2.575s-.644-2.576-1.808-2.576c-1.181,0-1.826.922-1.826,2.576m5.267-3.392a4.588,4.588,0,0,1,1.286,3.392,4.6,4.6,0,0,1-1.286,3.393,4.694,4.694,0,0,1-3.442,1.27,4.646,4.646,0,0,1-3.443-1.27,4.538,4.538,0,0,1-1.3-3.393,4.535,4.535,0,0,1,1.3-3.392,4.644,4.644,0,0,1,3.443-1.271,4.7,4.7,0,0,1,3.442,1.271m15.81,6.193a1.691,1.691,0,0,0,1.825-1.722v-.436l-1.6.191c-.974.122-1.339.4-1.339,1.009s.417.957,1.113.957m2.051,1.653a10.825,10.825,0,0,1-.087-1.3,2.881,2.881,0,0,1-2.851,1.514c-1.893,0-3.094-1.026-3.094-2.628s1.077-2.506,3.3-2.732l2.5-.242v-.367a1.329,1.329,0,0,0-2.643-.157h-2.781c.192-2.018,1.757-3.2,4.19-3.2,2.693,0,4.068,1.252,4.068,3.689v2.886a15.241,15.241,0,0,0,.157,2.541h-2.763Zm4.07-12.667h3.023V29.475h-3.023Zm-86.44,27.1a4.987,4.987,0,0,1,0-6.768,4.729,4.729,0,0,1,3.461-1.27,3.862,3.862,0,0,1,4.2,3.445H90.592a1.414,1.414,0,0,0-1.448-1.339c-1.13,0-1.782.957-1.782,2.557s.653,2.54,1.782,2.54a1.414,1.414,0,0,0,1.448-1.339h2.789a3.875,3.875,0,0,1-4.2,3.462,4.738,4.738,0,0,1-3.461-1.289m33.857,0a4.527,4.527,0,0,1-1.289-3.375,4.4,4.4,0,0,1,4.658-4.662,3.789,3.789,0,0,1,4.09,3.445h-2.716a1.39,1.39,0,0,0-1.408-1.339c-1.1,0-1.736.957-1.736,2.557s.636,2.54,1.736,2.54a1.39,1.39,0,0,0,1.408-1.339h2.716a3.8,3.8,0,0,1-4.09,3.462,4.545,4.545,0,0,1-3.369-1.289m35.6-3.375c0,1.653.632,2.575,1.791,2.575,1.143,0,1.774-.9,1.774-2.575s-.631-2.575-1.774-2.575c-1.16,0-1.791.922-1.791,2.575m5.169-3.391a4.641,4.641,0,0,1,1.263,3.391,4.641,4.641,0,0,1-1.263,3.393,4.558,4.558,0,0,1-3.378,1.27,4.512,4.512,0,0,1-3.379-1.27,4.585,4.585,0,0,1-1.28-3.393,4.581,4.581,0,0,1,1.28-3.391,5.127,5.127,0,0,1,6.757,0m22.537,6.766a4.523,4.523,0,0,1-1.289-3.375,4.4,4.4,0,0,1,4.658-4.662,3.789,3.789,0,0,1,4.09,3.445h-2.716a1.39,1.39,0,0,0-1.409-1.339c-1.1,0-1.736.957-1.736,2.557s.636,2.54,1.736,2.54a1.39,1.39,0,0,0,1.409-1.339h2.716a3.8,3.8,0,0,1-4.09,3.462,4.544,4.544,0,0,1-3.369-1.289m11.409,1.079h-2.871V36.081h2.871Zm.051-10.144h-2.972V32.322h2.972ZM97.365,44.99H94.5V36.081h2.87Zm.051-10.144H94.443V32.322h2.973Zm98.3-2.522h2.87V44.99h-2.87ZM78.8,20.6H81.67v1.374a2.43,2.43,0,0,1,2.388-1.582c2.068,0,3.183,1.27,3.183,3.409v5.707H84.32V24.5c0-1.155-.248-1.863-1.239-1.863-1.026,0-1.377.848-1.377,2.106v4.767H78.8V20.6ZM72.721,41.162h2.906c.121,1.2,1.114,1.879,2.732,1.879,1.34,0,2.245-.592,2.245-1.515,0-.782-.488-1.148-1.863-1.373l-2.193-.4c-2.3-.418-3.446-1.584-3.446-3.515a3.391,3.391,0,0,1,1.393-2.8,5.686,5.686,0,0,1,3.567-1.079c3.132,0,5.011,1.374,5.272,3.81H80.5c-.087-1.044-.991-1.652-2.4-1.652-1.237,0-2.053.592-2.053,1.5,0,.713.331,1.044,1.792,1.322l2.365.453c2.246.4,3.359,1.566,3.359,3.532a3.312,3.312,0,0,1-1.427,2.8A5.972,5.972,0,0,1,78.463,45.2c-3.393,0-5.48-1.463-5.742-4.038m70.494-2.383c0,2.626,1.1,4.106,3.027,4.106a2.3,2.3,0,0,0,2.472-2.053h2.923a5.044,5.044,0,0,1-5.394,4.367,5.8,5.8,0,0,1-4.419-1.774,6.448,6.448,0,0,1-1.67-4.646,6.5,6.5,0,0,1,1.67-4.646,5.793,5.793,0,0,1,4.419-1.775,5.023,5.023,0,0,1,5.394,4.368h-2.923a2.3,2.3,0,0,0-2.472-2.053c-1.931,0-3.027,1.479-3.027,4.107m34.235-2.906a2.4,2.4,0,0,0-2.36,1.582V36.081h-2.836V44.99h2.87V39.9c0-1.156.469-1.788,1.318-1.788s1.265.56,1.265,1.663v5.21h2.887V39.284c0-2.14-1.1-3.411-3.145-3.411m-63.388,0a2.4,2.4,0,0,0-2.36,1.582V36.081h-2.836V44.99h2.87V39.9c0-1.156.47-1.788,1.318-1.788s1.265.56,1.265,1.663v5.21h2.887V39.284c0-2.14-1.1-3.411-3.145-3.411m3.165-15.515a2.4,2.4,0,0,0-2.358,1.582V20.567h-2.833v8.909H114.9V24.39c0-1.156.469-1.788,1.317-1.788s1.264.56,1.264,1.663v5.211h2.884V23.769c0-2.14-1.1-3.41-3.141-3.41m40.646,0a2.4,2.4,0,0,0-2.356,1.582V20.567h-2.835v8.909h2.868V24.39c0-1.156.469-1.788,1.317-1.788s1.264.56,1.264,1.663v5.211h2.884V23.769c0-2.14-1.1-3.41-3.142-3.41m10.01,15.722V41.3c0,1.069-.434,1.654-1.22,1.654s-1.17-.518-1.17-1.538V36.081h-2.885v5.708c0,2.156,1.058,3.41,3.037,3.41a2.334,2.334,0,0,0,2.291-1.584V44.99h2.831V36.081h-2.884ZM24.87,30.973a3.753,3.753,0,1,0,3.753-3.752,3.752,3.752,0,0,0-3.753,3.752m2.284,9.048A3.753,3.753,0,1,0,23.4,43.773a3.753,3.753,0,0,0,3.753-3.753m10.444,0a3.753,3.753,0,1,0-3.753,3.752A3.752,3.752,0,0,0,37.6,40.021M10.527,37.667A3.753,3.753,0,1,0,14.28,41.42a3.753,3.753,0,0,0-3.753-3.753m36.192,0a3.753,3.753,0,1,0,3.753,3.753,3.753,3.753,0,0,0-3.753-3.753m0-13.388a3.753,3.753,0,1,0-3.753-3.753,3.753,3.753,0,0,0,3.753,3.753M37.6,21.926a3.753,3.753,0,1,0-3.753,3.753A3.752,3.752,0,0,0,37.6,21.926m-17.95,0A3.753,3.753,0,1,0,23.4,18.173a3.753,3.753,0,0,0-3.753,3.753m-9.121-5.152a3.753,3.753,0,1,0,3.754,3.753,3.753,3.753,0,0,0-3.754-3.753m18.1-2.942a3.753,3.753,0,1,0-3.753-3.753,3.753,3.753,0,0,0,3.753,3.753m0,34.283a3.753,3.753,0,1,0,3.753,3.753,3.753,3.753,0,0,0-3.753-3.753M39.069,27.22a3.753,3.753,0,1,0,3.753,3.753,3.753,3.753,0,0,0-3.753-3.753m0-18.094a3.753,3.753,0,1,0,3.753,3.753,3.753,3.753,0,0,0-3.753-3.753m-20.894,25.6a3.752,3.752,0,1,0-3.753-3.752,3.752,3.752,0,0,0,3.753,3.752m0-18.094a3.753,3.753,0,1,0-3.753-3.752,3.753,3.753,0,0,0,3.753,3.752M39.069,45.315a3.753,3.753,0,1,0,3.752,3.753,3.753,3.753,0,0,0-3.752-3.753m-20.893,0a3.753,3.753,0,1,0,3.752,3.753,3.753,3.753,0,0,0-3.752-3.753M11.483,30.973A3.753,3.753,0,1,0,7.73,34.726a3.752,3.752,0,0,0,3.753-3.753M49.514,27.22a3.753,3.753,0,1,0,3.753,3.753,3.753,3.753,0,0,0-3.753-3.753" transform="translate(-3.977 -6.327)"></path>
</svg>
